<?xml version="1.0" encoding="UTF-8" standalone="no"?><!DOCTYPE svg PUBLIC "-//W3C//DTD SVG 1.1//EN" "http://www.w3.org/Graphics/SVG/1.1/DTD/svg11.dtd"><svg width="100%" height="100%" viewBox="0 0 25 25" version="1.1" xmlns="http://www.w3.org/2000/svg" xmlns:xlink="http://www.w3.org/1999/xlink" xml:space="preserve" xmlns:serif="http://www.serif.com/" style="fill-rule:evenodd;clip-rule:evenodd;stroke-linecap:round;stroke-linejoin:round;stroke-miterlimit:1.5;"><rect id="diary" x="0" y="0" width="25" height="25" style="fill:none;"/><rect x="1.427" y="2.686" width="22.146" height="19.873" style="fill:none;stroke:#000;stroke-width:1px;"/><path d="M1.427,7.565l22.146,-0" style="fill:none;stroke:#000;stroke-width:1px;"/><g><path d="M10.843,18.04c-0,0.076 -0.034,0.146 -0.103,0.21c-0.068,0.065 -0.142,0.097 -0.223,0.097c-0.192,-0 -0.482,0.002 -0.867,0.006c-0.386,0.004 -0.675,0.006 -0.868,0.006c-0.149,-0 -0.221,-0.064 -0.217,-0.193l0.006,-0.066c0.056,-1.535 0.084,-2.465 0.084,-2.79l0,-1.79c0,-0.112 -0.026,-0.169 -0.078,-0.169c-0.08,0 -0.202,0.024 -0.365,0.073c-0.162,0.048 -0.286,0.072 -0.37,0.072c-0.125,-0 -0.187,-0.074 -0.187,-0.223c0,-0.137 -0.002,-0.342 -0.006,-0.615c-0.004,-0.273 -0.006,-0.48 -0.006,-0.62c-0,-0.081 0.05,-0.141 0.151,-0.181c0.59,-0.245 1.054,-0.575 1.392,-0.988c0.068,-0.085 0.126,-0.127 0.174,-0.127c0.008,-0 0.033,0.004 0.073,0.012c0.152,0.032 0.379,0.082 0.681,0.151c0.16,0.02 0.395,0.056 0.705,0.108c0.056,0.016 0.084,0.06 0.084,0.133c0,0.024 -0.004,0.066 -0.012,0.126c-0.044,0.354 -0.066,1.22 -0.066,2.598c-0,0.462 0.003,1.157 0.009,2.085c0.006,0.928 0.009,1.623 0.009,2.085Z" style="fill-rule:nonzero;"/><path d="M17.357,16.286c0,0.743 -0.307,1.316 -0.922,1.717c-0.522,0.346 -1.175,0.519 -1.958,0.519c-0.603,-0 -1.099,-0.043 -1.489,-0.127c-0.848,-0.177 -1.271,-0.333 -1.271,-0.47c-0,-0.024 0.008,-0.06 0.024,-0.108c0.056,-0.149 0.138,-0.372 0.247,-0.669c0.032,-0.149 0.088,-0.37 0.169,-0.663c0.036,-0.101 0.096,-0.151 0.18,-0.151c-0.012,0 0.168,0.066 0.54,0.199c0.371,0.133 0.676,0.199 0.913,0.199c0.787,-0 1.181,-0.263 1.181,-0.79c-0,-0.421 -0.374,-0.632 -1.121,-0.632c-0.101,-0 -0.233,0.004 -0.398,0.012c-0.165,0.008 -0.273,0.012 -0.325,0.012c-0.245,-0 -0.38,-0.002 -0.404,-0.006c-0.177,-0.02 -0.265,-0.089 -0.265,-0.205c-0,-0.615 0.024,-1 0.072,-1.157c0.032,-0.1 0.097,-0.151 0.193,-0.151c0.137,0 0.338,0.017 0.606,0.052c0.267,0.034 0.467,0.051 0.599,0.051c0.173,-0 0.317,-0.058 0.431,-0.172c0.115,-0.115 0.172,-0.26 0.172,-0.437c-0,-0.474 -0.346,-0.711 -1.037,-0.711c-0.289,0 -0.681,0.078 -1.175,0.235c-0.02,0.004 -0.038,0.006 -0.054,0.006c-0.052,0 -0.096,-0.056 -0.133,-0.169c-0.008,-0.168 -0.02,-0.361 -0.036,-0.578c-0.004,-0.048 -0.016,-0.145 -0.036,-0.289c-0.016,-0.117 -0.024,-0.211 -0.024,-0.284c-0,-0.213 0.329,-0.377 0.988,-0.494c0.454,-0.08 0.894,-0.12 1.32,-0.12c0.683,-0 1.282,0.15 1.796,0.452c0.622,0.361 0.934,0.861 0.934,1.5c-0,0.735 -0.334,1.294 -1.001,1.675c0.394,0.133 0.707,0.356 0.938,0.669c0.231,0.314 0.346,0.675 0.346,1.085Z" style="fill-rule:nonzero;"/></g><path d="M17.217,22.559c2.195,-1.61 1.733,-5.485 1.733,-5.485c0,0 2.601,2.936 4.623,0.734" style="fill:none;stroke:#000;stroke-width:1px;"/><path d="M17.217,22.559l6.356,-4.751" style="fill:none;stroke:#000;stroke-width:1px;"/></svg>